<?xml version="1.0" encoding="utf-8"?>
<!-- Generator: Adobe Illustrator 16.0.4, SVG Export Plug-In . SVG Version: 6.00 Build 0)  -->
<!DOCTYPE svg PUBLIC "-//W3C//DTD SVG 1.1//EN" "http://www.w3.org/Graphics/SVG/1.1/DTD/svg11.dtd">
<svg version="1.1" id="World" xmlns="http://www.w3.org/2000/svg" xmlns:xlink="http://www.w3.org/1999/xlink" x="0px" y="0px"
	 width="1252px" height="805.5px" viewBox="-393.5 -13.5 1252 805.5" enable-background="new -393.5 -13.5 1252 805.5"
	 xml:space="preserve">
<g id="XMLID_1_">
	<polygon id="XMLID_5563_" fill="none" stroke="#000000" stroke-miterlimit="10" points="330.97266,332.68311 381.20117,332.68311 
		360.42578,312.18115 330.97266,312.18115 	"/>
	<polygon id="XMLID_5562_" fill="none" stroke="#000000" stroke-miterlimit="10" points="411.19336,317.58057 427.32422,333.43311 
		427.32422,352.49902 410.23828,352.49902 410.23828,335.75781 393.56641,319.15234 408.05078,304.66504 417.07227,304.66504 
		417.07227,311.83936 	"/>
	<polygon id="XMLID_5561_" fill="none" stroke="#000000" stroke-miterlimit="10" points="416.04883,546.1543 393.1543,568.8457 
		393.1543,597.81836 398.96484,597.81836 415.02344,581.82812 415.02344,563.30664 419.80664,558.38867 419.80664,546.22461 	"/>
	<polygon id="XMLID_5560_" fill="none" stroke="#000000" stroke-miterlimit="10" points="599.93555,480.01172 632.32422,512.26562 
		632.32422,521.9668 628.56641,521.9668 591.32617,484.51953 591.32617,477.20898 594.4707,480.35156 	"/>
	<polygon id="XMLID_5559_" fill="none" stroke="#000000" stroke-miterlimit="10" points="672.91211,473.24219 652.48242,493.95117 
		643.94141,493.95117 643.94141,498.39062 660.68164,515.13086 666.14844,515.13086 681.52539,500.03125 681.52539,480.625 	"/>
	<polygon id="XMLID_5558_" fill="none" stroke="#000000" stroke-miterlimit="10" points="396.23242,159.11377 380.85547,159.11377 
		380.85547,125.97314 408.19141,98.43408 408.19141,108.20508 390.42578,125.97314 390.42578,153.30664 	"/>
	<polygon id="XMLID_5557_" fill="none" stroke="#000000" stroke-miterlimit="10" points="218.83984,261.68457 235.98779,278.21973 
		235.98779,283.14111 229.42822,289.63232 219.24707,289.63232 216.78857,292.36572 208.99609,292.36572 216.17041,285.39746 
		216.17041,267.42432 210.70557,262.29883 210.70557,248.63232 219.93018,248.63232 225.60303,254.71338 	"/>
	<polygon id="XMLID_5556_" fill="none" stroke="#000000" stroke-miterlimit="10" points="212.14062,270.3623 209.33789,273.57324 
		209.33789,279.72217 203.46436,285.53174 195.67188,285.53174 195.67188,274.94043 204.00928,266.39795 208.3125,266.39795 	"/>
	<polygon id="XMLID_5555_" fill="none" stroke="#000000" stroke-miterlimit="10" points="778.83398,528.18555 792.56641,541.78125 
		803.57031,541.78125 773.50391,511.7168 758.19531,511.64844 751.15625,504.54102 742.27344,513.2207 738.92578,509.32617 
		738.92578,502.83398 731.95508,502.83398 729.70117,500.7832 724.91797,500.7832 741.31641,517.18359 748.62891,517.18359 
		765.91602,534.26562 772.75195,534.26562 	"/>
	<polygon id="XMLID_5554_" fill="none" stroke="#000000" stroke-miterlimit="10" points="743.02734,347.03223 743.02734,305.28076 
		751.77148,296.33008 743.02734,287.23975 743.02734,266.87646 725.94141,249.65771 725.94141,259.6333 737.55859,271.52393 
		737.55859,328.85742 706.39648,360.0835 716.375,370.06055 716.375,363.09131 732.29688,347.03223 	"/>
	<polygon id="XMLID_5553_" fill="none" stroke="#000000" stroke-miterlimit="10" points="686.09961,577.31445 722.93555,540.62109 
		762.1582,579.43359 762.1582,544.85742 779.24219,562.21289 779.24219,576.29102 801.79102,598.77148 801.79102,639.84375 
		772.68164,668.88281 740.29102,668.88281 740.29102,654.875 720.20117,634.71875 694.84766,634.71875 686.51172,642.91797 
		667.51562,642.91797 657.60938,652.55273 656.78711,577.31445 	"/>
	<polygon id="XMLID_5552_" fill="none" stroke="#000000" stroke-miterlimit="10" points="753.27539,702.70898 767.41992,688.69922 
		759.08203,688.69922 753.34375,682.82227 	"/>
	<polygon id="XMLID_5550_" fill="none" stroke="#000000" stroke-miterlimit="10" points="180.229,198.13184 188.42871,206.06006 
		176.06104,218.56543 167.24512,218.56543 155.35547,206.33203 155.35547,198.06396 161.84814,198.06396 164.6499,200.79688 
		177.56445,200.79688 	"/>
	<path id="XMLID_5549_" fill="none" stroke="#000000" stroke-miterlimit="10" d="M166.90479,218.56543"/>
	<polygon id="XMLID_5548_" fill="none" stroke="#000000" stroke-miterlimit="10" points="-85.52246,410.58398 -62.9707,410.58398 
		-54.36084,419.46484 -47.25488,419.46484 -50.39795,422.88281 -58.1875,422.88281 -67.27686,414 -82.78906,414 	"/>
	<polygon id="XMLID_5547_" fill="none" stroke="#000000" stroke-miterlimit="10" points="-44.86328,422.88281 -32.90381,422.88281 
		-26.82129,429.0332 -36.32178,429.0332 -38.64502,431.21875 -40.76172,429.0332 -49.30469,429.0332 -47.59766,426.98242 
		-44.86328,426.98242 	"/>
	<polygon id="XMLID_5543_" fill="none" stroke="#000000" stroke-miterlimit="10" points="-63.65381,428.34961 -58.53076,428.34961 
		-55.4541,431.08203 -63.65381,431.08203 	"/>
	<polygon id="XMLID_5542_" fill="none" stroke="#000000" stroke-miterlimit="10" points="-22.31445,428.34961 -15.13818,428.34961 
		-17.93799,431.08203 -22.31445,431.08203 	"/>
	<polygon id="XMLID_5541_" fill="none" stroke="#000000" stroke-miterlimit="10" points="-71.30664,288.2666 -66.72852,292.57129 
		-66.72852,300.56494 -76.63818,300.56494 -80.53125,296.46436 -90.98877,296.46436 -79.78125,285.19141 -76.36328,288.2666 	"/>
	<polygon id="XMLID_5539_" fill="none" stroke="#000000" stroke-miterlimit="10" points="-70.55664,305.07471 -77.66162,312.86523 
		-77.66162,318.67236 -83.8125,324.82275 -83.8125,313.89111 -73.22168,303.29883 -57.50586,303.29883 -51.28613,309.51709 
		-53.81445,311.97705 -56.88916,308.90186 -60.5791,312.59131 -60.5791,315.25586 -63.99707,318.67236 -63.99707,313.20703 
		-67.41211,316.8291 -67.41211,312.52344 -65.36377,310.47461 -65.36377,307.05713 -67.82178,305.07471 	"/>
	<path id="XMLID_5538_" fill="none" stroke="#000000" stroke-miterlimit="10" d="M-70.55664,304.39307"/>
	<polygon id="XMLID_5537_" fill="none" stroke="#000000" stroke-miterlimit="10" points="-37.82373,312.86523 -42.81299,317.64893 
		-54.08936,317.64893 -51.35596,314.91455 -43.15479,314.91455 -41.24023,313.00098 	"/>
	<polygon id="XMLID_5536_" fill="none" stroke="#000000" stroke-miterlimit="10" points="-52.58447,320.93115 -55.86279,324.48193 
		-60.2373,324.48193 -62.42236,326.53271 -66.38721,326.53271 -68.43701,324.41504 -67.27686,323.11621 -62.9707,323.11621 
		-60.78564,320.93115 	"/>
	<polygon id="XMLID_5535_" fill="none" stroke="#000000" stroke-miterlimit="10" points="37.8208,280.74805 23.47119,294.89307 
		23.47119,301.24854 38.8457,301.24854 43.97168,306.64795 43.97168,292.36572 37.8208,292.36572 	"/>
	<polygon id="XMLID_5534_" fill="none" stroke="#000000" stroke-miterlimit="10" points="203.87256,66.18066 176.53906,93.37842 
		176.53906,115.03809 176.53906,134.17285 164.23975,146.47217 164.23975,180.29834 133.83154,180.29834 82.71631,231.2749 
		67.20557,215.83154 67.20557,181.32324 76.08691,172.57666 76.08691,109.23096 46.70508,109.23096 46.70508,95.22314 
		94.46924,47.73096 128.36377,47.73096 144.42139,31.33105 181.32227,31.33105 181.32227,66.18066 	"/>
	<polygon id="XMLID_5533_" fill="none" stroke="#000000" stroke-miterlimit="10" points="272.54736,349.08252 282.45801,349.08252 
		282.45801,355.5752 278.28809,351.13281 274.59717,351.13281 	"/>
	<polygon id="XMLID_5531_" fill="none" stroke="#000000" stroke-miterlimit="10" points="261.27295,336.78271 261.27295,327.89941 
		263.32275,327.89941 263.32275,326.53271 264.68945,326.53271 264.68945,330.29102 264.00586,331.24805 264.00586,336.03125 
		265.37256,337.05615 265.37256,344.98242 261.27295,344.98242 261.27295,339.17432 258.94971,336.78271 	"/>
	<path id="XMLID_5530_" fill="none" stroke="#000000" stroke-miterlimit="10" d="M92.69385,32.76416l-9.56592-9.63379H27.22949
		L-1.81396,51.89893v18.04004l6.83594,6.8335v8.5415h-17.42676l-5.46631-5.46729h-2.7334c0,0-0.13525,8.26953,0.06836,8.54346
		c0.20654,0.2041,5.74121,0,5.74121,0v8.88232l-7.24463,7.24268l7.65283,7.65479h27.81348L92.69385,32.76416z"/>
	<polygon id="XMLID_5529_" fill="none" stroke="#000000" stroke-miterlimit="10" points="-11.92529,116.06396 -4.81885,122.89697 
		14.58691,122.89697 14.58691,143.73877 31.67236,160.48145 31.67236,175.85645 41.78516,185.96973 31.12402,196.5625 
		22.44629,187.88232 17.66162,192.53027 26.8877,201.82373 26.8877,214.80713 18.68799,206.94922 18.68799,218.22461 
		-2.08545,197.38086 -15.47998,197.38086 -15.47998,191.23145 -4.88867,191.23145 12.94678,173.25977 -7.89502,152.28076 
		-15.82275,152.28076 -32.63037,135.47266 	"/>
	<polygon id="XMLID_5528_" fill="none" stroke="#000000" stroke-miterlimit="10" points="-26.4126,192.93896 -26.4126,197.38086 
		-22.6543,197.38086 -26.54932,201.2749 -32.97217,194.78369 -40.76172,202.57568 -40.76172,198.06396 -47.93652,198.06396 
		-34.74707,184.80811 	"/>
	<polygon id="XMLID_5527_" fill="none" stroke="#000000" stroke-miterlimit="10" points="-78.34619,107.18164 -70.14502,107.18164 
		-70.14502,147.49707 -97.13867,147.49707 -115.93066,128.84326 -115.93066,112.64746 -130.27979,112.64746 -130.27979,100.68896 
		-107.79785,78.20605 	"/>
	<polygon id="XMLID_5526_" fill="none" stroke="#000000" stroke-miterlimit="10" points="-38.91699,126.99805 -24.01953,112.10156 
		-29.21387,106.97607 -39.12207,116.81543 	"/>
	<polygon id="XMLID_5525_" fill="none" stroke="#000000" stroke-miterlimit="10" points="-40.08008,106.83936 -40.08008,112.30566 
		-44.86328,116.95215 -44.86328,123.23975 -56.479,134.78906 -56.479,113.67236 -49.9209,107.11182 	"/>
	<polygon id="XMLID_1531_" fill="none" stroke="#000000" stroke-miterlimit="10" points="-26.4126,103.76367 -32.63037,97.61475 
		-40.76172,97.61475 -40.76172,90.09766 -44.86328,90.09766 -44.86328,81.89746 -26.4126,81.89746 	"/>
	<polygon id="XMLID_5522_" fill="none" stroke="#000000" stroke-miterlimit="10" points="-52.37939,72.67236 -52.37939,87.02295 
		-57.23096,92.14844 -70.48828,92.14844 -94.40381,68.3667 -82.58398,56.61475 -66.04688,56.61475 -66.04688,60.37256 
		-72.26367,66.52295 -66.72852,72.12451 -66.72852,81.55566 -61.74072,86.40625 -59.2124,84.01611 -59.2124,79.50537 	"/>
	<polygon id="XMLID_5521_" fill="none" stroke="#000000" stroke-miterlimit="10" points="-15.47998,171.07227 -23.33936,178.93115 
		-37.68701,178.93115 -84.76953,226.0127 -80.05469,230.79639 -56.06934,254.78125 -48.96289,254.78125 -48.96289,276.98975 
		-38.71191,266.60352 -38.71191,257.1748 -21.62939,240.02051 -21.62939,212.41504 -7.62158,212.41504 2.97217,223.14307 
		2.97217,242.13916 22.10449,223.07471 22.10449,252.39014 40.82861,271.18262 25.86279,286.21533 -6.93848,286.21533 
		-22.92773,301.93164 -17.18799,301.93164 -7.07373,291.68213 6.73047,291.68213 2.97217,295.57715 2.97217,303.98145 
		18.34521,303.98145 3.92871,318.33252 -5.229,318.33252 -5.229,308.42285 -69.46191,372.79346 -69.46191,389.05811 
		-66.72852,391.8584 -66.72852,401.35547 -75.61328,392.26953 -75.61328,378.46484 -114.9043,378.46484 -135.06299,398.625 
		-135.06299,417.75781 -125.70312,426.98242 -110.46289,426.98242 -110.46289,416.05078 -90.98877,416.05078 -101.57861,426.57227 
		-101.57861,438.59961 -87.5708,438.59961 -82.99414,443.10938 -87.229,447.41406 -87.229,456.70703 -78.96289,465.25 
		-64.33887,465.25 -62.01562,467.77734 -51.76611,458.41602 -5.57178,458.41602 14.38184,478.23242 27.91406,478.23242 
		42.39844,492.71875 42.26367,506.25 78.47852,506.25 98.56885,526.20312 78.81982,546.01953 78.81982,582.44141 
		-5.91211,667.38086 -5.91211,725.94141 10.62354,742.68555 -8.98682,742.68555 -31.1958,720.27148 -31.1958,572.19141 
		-79.02979,524.2207 -79.02979,498.39062 -60.5791,479.80273 -60.5791,473.79102 -65.63525,468.73633 -82.65234,468.66797 
		-105.1333,446.11523 -115.5874,446.11523 -124.94873,436.54883 -149.0708,436.54883 -166.36133,419.25781 -159.25488,412.35742 
		-181.52881,389.87695 -181.52881,376.07568 -188.36475,369.30957 -188.36475,395.20703 -177.97705,405.5918 -180.57373,408.25781 
		-197.24609,391.58643 -197.24609,364.45898 -217.74658,344.22998 -217.74658,308.42285 -210.23047,300.83936 -210.23047,274.94043 
		-220.47998,264.96289 -220.47998,206.60791 -249.18018,177.90527 -259.01953,187.81494 -270.02344,187.81494 -293.4624,211.04932 
		-319.22266,211.04932 -334.25684,226.08154 -365.00684,226.08154 -358.72168,219.93115 -341.08984,219.93115 -324.62207,203.52979 
		-306.23828,203.52979 -293.4624,190.75293 -313.82178,170.52637 -291.54736,148.11279 -291.54736,121.87354 -237.49561,67.68408 
		-184.19385,120.84766 -142.92236,120.84766 -109.23438,154.33057 -65.70361,154.33057 -41.44678,129.93701 -41.44678,156.38086 
		-36.66211,156.38086 -36.66211,170.38916 -22.6543,156.38086 -15.47998,156.38086 	"/>
	<polygon id="XMLID_1532_" fill="none" stroke="#000000" stroke-miterlimit="10" points="-20.94629,68.91406 -31.1958,58.4585 
		-31.1958,56.61475 -28.4624,56.61475 -28.4624,50.12158 -25.45605,47.04736 -20.26123,47.04736 -20.26123,53.88037 
		-16.84619,53.88037 -16.84619,61.19092 -9.94482,68.23145 -14.65967,73.01367 -20.94629,73.01367 	"/>
	<polygon id="XMLID_1533_" fill="none" stroke="#000000" stroke-miterlimit="10" points="-45.20459,55.24707 -50.73926,60.71533 
		-57.84717,60.71533 -57.84717,56.27295 -57.84717,56.27295 -51.01416,49.78174 -42.12988,49.78174 -42.12988,55.24707 	"/>
	<path id="XMLID_5512_" fill="none" stroke="#000000" stroke-miterlimit="10" d="M754.64062,151.25537v72.77637l24.60156,24.25879
		v-61.09131l-9.9082-9.77051l44.96289-45.10107l-28.5625-28.56396h20.83984V79.16504H624.80859v18.44971h-73.32031
		l-27.47266-27.3335h-26.10352l-33.6875,33.82471v11.75391l0.95508,1.09229l-53.91406,53.77881h-23.0293l-41.54688,41.47852
		l-21.52539-21.66162h12.16602l9.97266,9.90723l9.22656-9.29199l-13.59961-13.59766h-11.68555l-14.2793-14.35107h-17.08301
		l-24.25977,24.25781v11.75391l-28.7002,28.56396v17.90234l7.10498,7.10791l7.9292-7.92627l10.24951,10.24951v5.94336
		l3.55322,3.62402l8.74805-8.8833v-7.24316c0,0,7.65137-8.33984,7.99316-8.06445c0.34082,0.34229-5.94238-5.87695-5.94238-5.87695
		v-11.9585c0,0,10.66016-11.75293,11.68457-11.75293c1.02344,0-2.93848-2.86914-2.93848-2.86914l6.62891-6.62988h6.49121v6.56006
		l-12.2998,12.23291v9.22461l8.54102,8.19922h5.39648l4.16992-4.09961h9.01953l8.06348,8.20166h-19.88574l-12.57129,12.64014
		v18.7915h-19.6123l-5.05811-5.05566l-5.73975,5.73926l-5.46631-5.46631h7.1748v-6.83398h-5.46631v-9.2915l-7.5166,7.58398v7.51611
		l2.7334,2.7334v5.12402h-8.95117l-24.875,24.60059h-13.11816l11.40967,11.2749v14.01074h-26.6499v29.38232h25.28174
		l8.74951-8.81494l-4.16992-4.30664l16.26562-16.26074h11.82129l4.57812-4.78467h3.75781l21.86914,21.52539v9.35986l5.46484-5.25928
		v-7.10693l3.48633,3.48389l1.70801-1.64062l-23.37207-23.36963l5.67188-5.67139l20.02344,20.02295v8.06201l15.24023,15.23926
		c0,0,4.64551-5.74121,5.7373-5.74121c1.09473,0-8.67871-8.67627-8.67871-8.67627v-3.75928h14.34961v6.56055l10.58984,10.52295
		h26.31055v20.49805h-76.12207l-15.78662-15.71484h-55.62354l-49.95215,50.22363v40.93164l31.7749,31.84375h43.52734
		l33.34814,33.14258v86.58008l34.50977,34.71484h20.36328l29.92969-29.72656v-23.98633l21.86914-21.79883v-47.08203
		l43.73047-43.80078v-12.64258h-20.02148l-58.15234-58.01367l8.95312-8.81396l53.8457,53.84326h12.02734l32.25391-31.97852
		l-13.05273-12.2998l-6.625,6.62598h-8.54297l-21.18359-21.31836l7.24219-7.38037l15.85352,15.6499h12.4375l4.44141,4.7832h43.39258
		l16.39844,16.05664v32.66602l31.43359,31.56836v-36.14844c0,0,33.14258-35.25781,33.14258-33.07422
		c0,2.18945,32.45898,32.32422,32.45898,32.32422v32.18359c0,0,22.00195,21.93555,21.11328,20.97852
		c-0.95508-0.95898,7.51758-7.44922,7.51758-7.44922l-20.42969-20.42969V447.6875l17.14844,17.15234l20.63477-20.63867
		l-20.42773-20.42773l13.32422-13.32812l10.79492,10.79688l30.27344-30.27197v-24.4624l-15.71484-15.85254v-28.77051
		l35.5332,35.60303v-38.33545l15.0332-14.96338v-68.54004h-19.13477v-25.89795l20.1582-19.88623h24.25781v-24.25977
		L754.64062,151.25537z"/>
	<polygon id="XMLID_5510_" fill="none" stroke="#000000" stroke-miterlimit="10" points="685.625,396.57422 685.625,406.82422 
		683.57422,408.60156 683.57422,411.60742 679.47461,407.44141 679.47461,402.72266 	"/>
	<polygon id="XMLID_5504_" fill="none" stroke="#000000" stroke-miterlimit="10" points="634.375,526.06445 660.68164,526.06445 
		666.90234,532.2168 716.71875,532.2168 711.86328,536.31445 704.41797,536.31445 701.88672,539.73242 695.53516,539.73242 
		698.74414,536.31445 664.7832,536.31445 661.63867,532.89844 644.96484,532.89844 641.13867,528.79883 634.375,528.79883 	"/>
	<polygon id="XMLID_5502_" fill="none" stroke="#000000" stroke-miterlimit="10" points="708.03906,494.63281 704.62109,498.04883 
		689.72461,498.04883 689.72461,503.51562 700.31641,503.51562 695.05469,508.7793 699.97461,513.76562 699.97461,520.94336 
		689.72461,510.34961 689.72461,521.14844 685.625,521.21289 685.625,494.63281 	"/>
	<polygon id="XMLID_5509_" fill="none" stroke="#000000" stroke-miterlimit="10" points="683.57422,426.98242 689.72461,426.98242 
		689.72461,430.05859 691.09375,431.76758 691.09375,434.1582 688.01367,437.84766 701.20508,450.89844 704.75781,450.89844 
		704.75781,455.68164 702.70703,455.68164 702.70703,461.49219 697.92578,456.50195 697.92578,452.60742 690.4082,445.0918 
		690.4082,450.625 680.8418,441.33203 680.8418,436.54883 683.57422,436.54883 	"/>
	<polygon id="XMLID_5508_" fill="none" stroke="#000000" stroke-miterlimit="10" points="699.1543,470.7168 694.16602,470.7168 
		698.60938,466.61523 706.46875,466.61523 706.125,463.19727 709.54297,466.61523 709.54297,475.15625 706.94336,478.57422 	"/>
</g>
</svg>
